<svg xmlns="http://www.w3.org/2000/svg" height="20" width="20" version="1.1" viewBox="0 0 20 20">


    <defs>
        <clipPath
            id="pupilClipPath">
            <path
                d="m 10,7 c 4.01998,0 6.060623,1.8578607 8.134766,3.916016 C 15.151149,12.855469 13.045622,13.875 10,13.875 6.9543778,13.875 4.8488511,12.855469 1.8652344,10.916016 3.9393768,8.8578607 5.9800205,7 10,7 Z"
            />
        </clipPath>
 

        <symbol id="articles">
            <rect height="18" width="12" y="1" x="4"/>
            <g style="fill:#fff">
                <path  d="m19 16-6-7.9-4.1-2.1l1.4 4 6.4 7.7z"/>
                <path d="m12 7.6-3.1-1.6 1 3z" />
            </g>
        </symbol>
        
        <symbol id="images">
            <rect height="12" width="16" y="4" x="2"/>
            <path d="m6 14 3-4 2 2 2-2 2-2 3 4v4h-15z"/>
            <circle cx="5.5" cy="7.5" r="1.5"/>
        </symbol>

        <symbol id="files">
            <path d="m 4,1 h 7 l 5,5 V 19 H 4 Z"/>
            <path d="M 16,6 H 11 V 1 Z"/>
        </symbol>

        <symbol id="links">
            <path d="m 2.6644086,11.67873 c -1.5547116,1.554718 -1.5547114,4.102137 0,5.656855 1.5547116,1.554718 4.1021199,1.554718 5.6568315,0 l 4.2426239,-4.242641 c -1.038237,1.038241 -2.515274,1.367662 -3.8476399,1.019228 l -1.8091919,1.809199 c -0.7957019,0.795706 -2.0327138,0.795706 -2.8284157,0 -0.795702,-0.795705 -0.795702,-2.032722 -1e-7,-2.828427 1.8232979,-1.823306 3.2786026,-3.2786164 4.9497275,-4.9497482 0.795702,-0.7957052 2.0327141,-0.7957052 2.8284161,10e-8 0.795702,0.7957052 0.795702,2.0327221 0,2.8284271 L 14.290191,8.5381815 C 14.116863,7.8753869 13.787443,7.2454594 13.270968,6.7289822 12.754492,6.2125049 12.124567,5.8830836 11.461776,5.709754 10.129409,5.36132 8.6523725,5.6907413 7.6141361,6.7289821 5.9642271,8.3788979 4.3143175,10.028814 2.6644086,11.67873 Z"/>
            <path d="m 17.513591,8.1431959 c 1.554712,-1.554718 1.554712,-4.1021369 0,-5.6568549 -1.554711,-1.55471804 -4.10212,-1.55471804 -5.656831,-10e-8 L 7.6141361,6.7289821 C 8.6523725,5.6907413 10.129409,5.36132 11.461776,5.709754 l 1.809192,-1.8091993 c 0.795701,-0.7957053 2.032713,-0.7957053 2.828415,0 0.795702,0.7957053 0.795702,2.0327222 0,2.8284275 -1.823298,1.8233054 -3.278602,3.2786158 -4.949727,4.9497478 -0.795702,0.795705 -2.032714,0.795705 -2.8284159,0 -0.795702,-0.795705 -0.795702,-2.0327221 -1e-7,-2.8284273 L 5.8878083,11.283744 c 0.1733288,0.662795 0.5027488,1.292723 1.0192239,1.8092 0.5164751,0.516477 1.1464,0.845898 1.8091919,1.019228 1.3323659,0.348434 2.8094029,0.01901 3.8476399,-1.019228 1.649909,-1.649916 3.299818,-3.2998323 4.949727,-4.9497481 z"/>
        </symbol>

        <symbol id="preview">
            <path d="M 10,14.375 C 6.6250002,14.375 4.375,13.25 1,11 3.25,8.75 5.5,6.5 10,6.5 c 4.5,0 6.75,2.25 9,4.5 -3.375,2.25 -5.625,3.375 -9,3.375 z" />
            <circle class="pupil" style="fill:#000; stroke-width:2px; stroke:#666;" cx="10" cy="12" r="3.5" clip-path="url(#pupilClipPath)" />
        </symbol>

        <symbol id="shortcuts">
            <g stroke-linecap="square">
                <rect height="2" width="2" y="5" x="1"/>
                <rect height="2" width="2" y="5" x="6"/>
                <rect height="2" width="2" y="5" x="11"/>
                <rect height="2" width="2" y="5" x="16"/>

                <rect height="2" width="2" y="10" x="3"/>
                <rect height="2" width="2" y="10" x="8"/>
                <rect height="2" width="2" y="10" x="13"/>

                <rect height="2" width="2" y="15" x="1"/>
                <rect height="2" width="7" y="15" x="6"/>
                <rect height="2" width="2" y="15" x="16"/>
            </g>
        </symbol>

        <symbol id="snippets">
            <path d="M 6.5616483,6.6411209 V 8.2793754 Q 5.9239732,7.9942361 5.3174044,7.8490743 4.7108354,7.7039125 4.171663,7.7039125 q -0.7154402,0 -1.0576073,0.1970053 Q 2.7718886,8.0979231 2.7718886,8.5126711 2.7718886,8.8237321 3,9 3.2332958,9.1710836 3.8398646,9.295508 L 4.690098,9.4665915 q 1.2909032,0.2592174 1.8352598,0.7880205 0.5443568,0.528805 0.5443568,1.503462 0,1.280535 -0.7620995,1.907841 -0.756915,0.622122 -2.3174043,0.622122 -0.7361776,0 -1.4775397,-0.139978 -0.741362,-0.139978 -1.482724,-0.414748 v -1.684913 q 0.741362,0.39401 1.4308805,0.5962 0.6947029,0.197005 1.3375622,0.197005 0.6532281,0 1.0005796,-0.217742 0.3473514,-0.217743 0.3473514,-0.622122 0,-0.362905 -0.2384801,-0.55991 Q 4.674545,11.244823 3.9694734,11.089294 L 3.1970053,10.918209 Q 2.0357109,10.66936 1.4965386,10.125004 0.96255059,9.5806472 0.96255059,8.6578329 q 0,-1.1561099 0.74654641,-1.7782319 0.7465463,-0.622122 2.1463208,-0.622122 0.6376749,0 1.3116404,0.098503 0.6739654,0.093318 1.3945901,0.2851389 z"/>
            <path d="m 9,10 v 1 h 4 v 3 L 17,10.5 13,7 v 3 z"/>
            <path d="m 17.5,7 v 7 h 1 V 7 Z"/>
        </symbol>

        <symbol id="size0">
            <rect class="left-panel" height="14" width="18" y="3" x="1" />
            <path style="stroke:currentColor;" class="chevron" d="m3 5 2 2-2 2"/>
        </symbol>

        <symbol id="size1-2">
            <rect class="left-panel" height="14" width="9" y="3" x="1" />
            <path style="stroke:currentColor;" class="chevron" d="m3 5 2 2-2 2" />
            <rect style="fill:currentColor;" class="right-panel" height="14" width="9" y="3" x="10"/>
        </symbol>

        <symbol id="size1-3">
            <rect class="left-panel" height="14" width="12" y="3" x="1" />
            <path style="stroke:currentColor;" class="chevron" d="m3 5 2 2-2 2"/>
            <rect style="fill:currentColor;" class="right-panel" height="14" width="6" y="3" x="13"/>
        </symbol>

        <symbol id="size2-3">
            <rect class="left-panel" height="14" width="6" y="3" x="1" />
            <path style="stroke:currentColor;" class="chevron" d="m3 5 2 2-2 2"/>
            <rect style="fill:currentColor;" class="right-panel" height="14" width="12" y="3" x="7"/>
        </symbol>

        <symbol id="settings">
            <path d="M 10 3 A 7 7 0 0 0 8.9902344 3.0800781 L 8.7285156 5.1660156 A 5 5 0 0 0 7.4882812 5.6835938 L 5.8242188 4.390625 A 7 7 0 0 0 5.1386719 4.9648438 A 7 7 0 0 0 5.0957031 5.0078125 A 7 7 0 0 0 4.3964844 5.8183594 L 5.6875 7.4785156 A 5 5 0 0 0 5.171875 8.7226562 L 3.0820312 8.9824219 A 7 7 0 0 0 3.0078125 9.84375 L 3.0078125 10.220703 A 7 7 0 0 0 3.078125 11.001953 L 5.1640625 11.261719 A 5 5 0 0 0 5.6835938 12.511719 L 4.390625 14.173828 A 7 7 0 0 0 4.8671875 14.75 L 5.2050781 15.087891 A 7 7 0 0 0 5.8164062 15.601562 L 7.4765625 14.310547 A 5 5 0 0 0 8.7304688 14.830078 L 8.9921875 16.917969 A 7 7 0 0 0 9.6894531 16.984375 L 10.441406 16.984375 A 7 7 0 0 0 11.007812 16.919922 L 11.269531 14.833984 A 5 5 0 0 0 12.521484 14.310547 L 14.183594 15.601562 A 7 7 0 0 0 14.75 15.132812 L 15.087891 14.794922 A 7 7 0 0 0 15.609375 14.173828 L 14.316406 12.513672 A 5 5 0 0 0 14.832031 11.261719 L 16.919922 11.001953 A 7 7 0 0 0 16.992188 10.15625 L 16.992188 9.7792969 A 7 7 0 0 0 16.919922 8.9824219 L 14.832031 8.7226562 A 5 5 0 0 0 14.310547 7.4804688 L 15.603516 5.8183594 A 7 7 0 0 0 15.035156 5.1386719 L 15.021484 5.1230469 A 7 7 0 0 0 14.992188 5.0957031 A 7 7 0 0 0 14.173828 4.390625 L 12.513672 5.6835938 A 5 5 0 0 0 11.271484 5.1699219 L 11.009766 3.0820312 A 7 7 0 0 0 10 3 z M 10 7 A 3 3 0 0 1 13 10 A 3 3 0 0 1 10 13 A 3 3 0 0 1 7 10 A 3 3 0 0 1 10 7 z " />
        </symbol>
    </defs>

</svg>
